<svg xmlns="http://www.w3.org/2000/svg" style="display: none;">
  <symbol id="icon-bing" viewBox="0 0 24 24">
    <path fill="#00809D" d="M12.027 2.506l6.937 2.329c.396.133.695.45.8.855l1.688 6.542a1.145 1.145 0 0 1-.382 1.192l-5.258 4.214a1.153 1.153 0 0 1-1.412 0l-5.258-4.214a1.144 1.144 0 0 1-.382-1.192l1.688-6.542c.105-.405.404-.722.8-.855l6.937-2.329c.278-.093.58-.093.858 0z"/>
    <path fill="#00B4E6" d="M12.843 3.769l5.576 2.116c.286.095.504.325.581.618l1.288 4.991c.077.293-.019.603-.252.804l-4.014 3.221a.828.828 0 0 1-1.016 0L8.992 12.298a.663.663 0 0 1-.252-.804l1.288-4.991c.077-.293.295-.523.581-.618l5.576-2.116c.227-.075.473-.075.7 0z"/>
  </symbol>

  <symbol id="icon-icon_baidulogo" viewBox="0 0 24 24">
    <path fill="#2932E1" d="M12 2C6.48 2 2 6.48 2 12s4.48 10 10 10c1.19 0 2.34-.21 3.41-.6.3-.11.49-.4.49-.72 0-.43-.35-.78-.78-.78-.17 0-.33.06-.46.11-.91.33-1.78.49-2.66.49-3.86 0-7-3.14-7-7s3.14-7 7-7 7 3.14 7 7c0 .88-.16 1.75-.49 2.66-.05.13-.11.29-.11.46 0 .43.35.78.78.78.32 0 .61-.19.72-.49.39-1.07.6-2.22.6-3.41 0-5.52-4.48-10-10-10z"/>
    <circle fill="#2932E1" cx="12" cy="12" r="3"/>
  </symbol>

  <symbol id="icon-sougou" viewBox="0 0 24 24">
    <path fill="#FB6022" d="M12 2C6.48 2 2 6.48 2 12s4.48 10 10 10 10-4.48 10-10S17.52 2 12 2zm0 18c-4.41 0-8-3.59-8-8s3.59-8 8-8 8 3.59 8 8-3.59 8-8 8z"/>
    <path fill="#FB6022" d="M12 6c-3.31 0-6 2.69-6 6s2.69 6 6 6 6-2.69 6-6-2.69-6-6-6zm0 10c-2.21 0-4-1.79-4-4s1.79-4 4-4 4 1.79 4 4-1.79 4-4 4z"/>
  </symbol>

  <symbol id="icon-zhihu" viewBox="0 0 24 24">
    <path fill="#0084FE" d="M12 2C6.48 2 2 6.48 2 12s4.48 10 10 10 10-4.48 10-10S17.52 2 12 2zm0 18c-4.41 0-8-3.59-8-8s3.59-8 8-8 8 3.59 8 8-3.59 8-8 8z"/>
    <path fill="#0084FE" d="M12 7c-.55 0-1 .45-1 1v4c0 .55.45 1 1 1s1-.45 1-1V8c0-.55-.45-1-1-1zm2 4c0 .55-.45 1-1 1h-2c-.55 0-1-.45-1-1s.45-1 1-1h2c.55 0 1 .45 1 1z"/>
  </symbol>

  <symbol id="icon-bili" viewBox="0 0 24 24">
    <path fill="#FB7299" d="M18 4H6c-1.1 0-2 .9-2 2v12c0 1.1.9 2 2 2h12c1.1 0 2-.9 2-2V6c0-1.1-.9-2-2-2zm-8 12.5c0 .28-.22.5-.5.5s-.5-.22-.5-.5v-7c0-.28.22-.5.5-.5s.5.22.5.5v7zm6 0c0 .28-.22.5-.5.5s-.5-.22-.5-.5v-7c0-.28.22-.5.5-.5s.5.22.5.5v7z"/>
  </symbol>

  <symbol id="icon-weibo" viewBox="0 0 24 24">
    <path fill="#FF5722" d="M12 2C6.48 2 2 6.48 2 12s4.48 10 10 10 10-4.48 10-10S17.52 2 12 2zm0 18c-4.41 0-8-3.59-8-8s3.59-8 8-8 8 3.59 8 8-3.59 8-8 8z"/>
    <circle fill="#FF5722" cx="9" cy="13" r="2"/>
    <circle fill="#FF5722" cx="15" cy="13" r="2"/>
  </symbol>

  <symbol id="icon-google00" viewBox="0 0 24 24">
    <path fill="#4285F4" d="M22.56 12.25c0-.78-.07-1.53-.2-2.25H12v4.26h5.92c-.26 1.37-1.04 2.53-2.21 3.31v2.77h3.57c2.08-1.92 3.28-4.74 3.28-8.09z"/>
    <path fill="#34A853" d="M12 23c2.97 0 5.46-.98 7.28-2.66l-3.57-2.77c-.98.66-2.23 1.06-3.71 1.06-2.86 0-5.29-1.93-6.16-4.53H2.18v2.84C3.99 20.53 7.7 23 12 23z"/>
    <path fill="#FBBC05" d="M5.84 14.09c-.22-.66-.35-1.36-.35-2.09s.13-1.43.35-2.09V7.07H2.18C1.43 8.55 1 10.22 1 12s.43 3.45 1.18 4.93l2.85-2.22.81-.62z"/>
    <path fill="#EA4335" d="M12 5.38c1.62 0 3.06.56 4.21 1.64l3.15-3.15C17.45 2.09 14.97 1 12 1 7.7 1 3.99 3.47 2.18 7.07l3.66 2.84c.87-2.6 3.3-4.53 6.16-4.53z"/>
  </symbol>

  <symbol id="icon-fanyi" viewBox="0 0 24 24">
    <path fill="#0084FE" d="M12.87 15.07l-2.54-2.51.03-.03c1.74-1.94 2.98-4.17 3.71-6.53H17V4h-7V2H8v2H1v1.99h11.17C11.5 7.92 10.44 9.75 9 11.35 8.07 10.32 7.3 9.19 6.69 8h-2c.73 1.63 1.73 3.17 2.98 4.56l-5.09 5.02L4 19l5-5 3.11 3.11.76-2.04zM18.5 10h-2L12 22h2l1.12-3h4.75L21 22h2l-4.5-12zm-2.62 7l1.62-4.33L19.12 17h-3.24z"/>
  </symbol>
</svg>